<?xml version="1.0" standalone="no"?>
<!DOCTYPE svg PUBLIC "-//W3C//DTD SVG 20010904//EN"
 "http://www.w3.org/TR/2001/REC-SVG-20010904/DTD/svg10.dtd">
<svg version="1.0" xmlns="http://www.w3.org/2000/svg"
 width="512.000000pt" height="512.000000pt" viewBox="0 0 512.000000 512.000000"
 preserveAspectRatio="xMidYMid meet">
<metadata>
Created by potrace 1.11, written by Peter Selinger 2001-2013
</metadata>
<g transform="translate(0.000000,512.000000) scale(0.100000,-0.100000)"
fill="#000000" stroke="none">
<path d="M3188 4895 c-2 -1 -25 -5 -53 -8 -362 -41 -640 -360 -629 -722 3
-103 26 -193 81 -318 24 -55 43 -100 41 -102 -2 -1 -111 38 -243 88 -132 49
-244 89 -250 89 -9 0 -241 -64 -550 -151 -77 -21 -248 -69 -380 -105 -132 -37
-270 -76 -307 -87 l-66 -20 -36 -152 c-20 -84 -38 -162 -41 -174 -10 -45 -13
-59 -25 -103 -7 -25 -14 -52 -15 -60 -2 -8 -9 -37 -15 -65 -37 -161 -123 -517
-161 -675 -22 -91 -43 -176 -45 -189 -3 -13 -25 -107 -50 -210 -25 -102 -48
-197 -50 -211 -3 -14 -14 -59 -24 -101 -11 -42 -21 -85 -23 -95 -2 -10 -7 -30
-10 -44 -4 -14 -27 -108 -51 -210 -24 -102 -65 -274 -91 -383 -26 -109 -45
-200 -43 -202 2 -3 38 2 79 10 41 8 99 20 129 26 30 6 113 23 185 39 72 16
216 47 320 69 105 22 267 56 360 76 94 20 177 38 186 40 32 7 94 17 106 18 12
0 343 -126 375 -144 10 -5 25 -9 33 -9 8 0 15 -5 15 -12 0 -6 3 -8 7 -5 3 4
12 2 20 -4 7 -6 13 -9 13 -6 0 3 12 0 27 -8 15 -8 30 -12 35 -9 4 3 8 0 8 -6
0 -6 5 -8 10 -5 6 3 10 1 10 -5 0 -7 7 -10 15 -6 8 3 15 1 15 -4 0 -6 9 -10
20 -10 11 0 20 -5 20 -11 0 -5 4 -8 9 -4 5 3 13 0 16 -6 4 -5 13 -8 21 -5 8 3
14 2 14 -2 0 -4 11 -12 25 -19 19 -8 23 -8 18 0 -3 7 2 5 13 -4 10 -9 25 -14
33 -11 8 2 11 0 8 -6 -4 -5 2 -12 13 -15 11 -3 18 -1 14 4 -3 5 2 6 10 3 8 -3
17 -12 20 -20 3 -7 12 -11 21 -8 8 3 15 2 15 -4 0 -6 11 -9 25 -7 14 1 28 -2
32 -8 4 -6 1 -7 -7 -2 -9 6 -11 4 -6 -4 5 -7 11 -10 14 -7 3 3 12 0 20 -7 11
-8 13 -8 9 0 -5 7 0 9 13 6 11 -3 23 -9 26 -14 3 -5 -3 -6 -13 -2 -10 3 -15 3
-11 -1 3 -4 12 -9 20 -10 7 -1 22 -7 34 -14 16 -8 24 -8 33 1 10 9 11 8 5 -8
-6 -16 -4 -18 6 -8 10 9 16 8 29 -6 9 -9 12 -11 7 -4 -13 20 -2 16 29 -11 16
-14 32 -23 36 -20 4 2 10 0 14 -6 3 -5 11 -10 18 -10 6 0 2 6 -8 14 -11 8 -23
12 -26 10 -4 -2 -13 4 -20 14 -13 15 -12 16 4 3 9 -7 17 -11 17 -7 0 4 10 0
23 -9 13 -8 27 -12 32 -8 4 5 5 2 0 -6 -10 -17 15 -33 31 -20 8 7 15 6 20 -2
4 -8 3 -9 -4 -5 -7 4 -12 5 -12 2 0 -2 14 -11 30 -20 17 -8 28 -10 25 -5 -4 5
-1 9 4 9 6 0 11 -4 11 -8 0 -14 48 -33 55 -22 8 13 25 13 25 -1 0 -5 -6 -7
-12 -3 -9 5 -9 3 1 -9 7 -9 16 -15 20 -13 4 3 13 1 21 -4 9 -5 19 -5 27 2 11
8 12 7 7 -8 -6 -16 -5 -17 7 -6 16 15 29 16 29 1 0 -5 -4 -7 -10 -4 -5 3 -10
1 -10 -4 0 -14 13 -14 27 0 8 8 13 7 18 -2 6 -8 4 -10 -6 -4 -12 8 -12 6 -1
-8 8 -9 17 -16 20 -15 8 1 40 -10 64 -23 23 -12 28 -11 28 1 0 5 -3 9 -7 8 -5
-1 -18 3 -30 10 -13 7 -23 10 -23 6 0 -3 -6 -1 -13 5 -8 6 -18 7 -22 3 -5 -4
-5 -1 -1 6 6 10 11 10 22 1 8 -6 14 -8 14 -5 0 4 10 1 23 -6 22 -12 28 -15 48
-17 6 0 8 -8 5 -17 -5 -14 -4 -15 8 -5 19 16 37 6 29 -17 -3 -9 -3 -14 2 -10
4 4 21 0 37 -8 24 -12 33 -13 42 -3 8 9 8 10 -1 5 -13 -7 -63 13 -63 26 0 5
11 1 25 -8 13 -8 28 -13 33 -10 6 3 15 -1 22 -9 6 -7 18 -11 26 -8 8 3 14 0
14 -7 0 -6 -4 -8 -10 -5 -5 3 -10 2 -10 -4 0 -6 12 -8 30 -4 19 3 30 1 30 -5
0 -7 -8 -9 -17 -5 -10 3 -15 3 -11 -1 11 -13 43 -14 58 -1 12 9 351 101 443
120 10 2 27 7 37 10 10 3 27 8 37 10 10 2 128 33 263 68 l245 63 52 295 c28
162 59 335 67 384 9 50 18 101 21 115 2 14 25 142 50 285 25 143 57 321 70
395 13 74 26 146 29 160 2 14 11 63 19 110 9 47 18 99 20 115 5 28 21 117 32
175 3 14 19 106 35 205 26 153 50 289 75 420 3 17 7 39 9 50 2 11 16 91 31
178 15 87 25 160 23 162 -2 3 -36 -4 -74 -15 -38 -11 -78 -22 -89 -25 -11 -2
-36 -9 -55 -14 -19 -5 -69 -18 -110 -29 -41 -11 -227 -61 -412 -111 -313 -85
-340 -91 -365 -77 -16 7 -43 17 -61 21 -20 4 -30 11 -25 18 3 7 3 9 -1 5 -8
-7 -115 27 -128 40 -5 5 29 89 75 188 47 98 94 202 107 229 12 28 33 73 47
100 20 43 45 122 59 190 2 11 4 61 5 110 1 348 -264 652 -611 700 -49 7 -148
14 -152 10z m-623 -4335 c3 -6 -1 -7 -9 -4 -18 7 -21 14 -7 14 6 0 13 -4 16
-10z m265 -100 c0 -5 -2 -10 -4 -10 -3 0 -8 5 -11 10 -3 6 -1 10 4 10 6 0 11
-4 11 -10z m70 -36 c0 -2 -9 0 -20 6 -11 6 -20 13 -20 16 0 2 9 0 20 -6 11 -6
20 -13 20 -16z m54 -12 c3 -5 -1 -9 -9 -9 -8 0 -12 4 -9 9 3 4 7 8 9 8 2 0 6
-4 9 -8z"/>
<path d="M3190 299 c0 -5 5 -7 10 -4 6 3 10 8 10 11 0 2 -4 4 -10 4 -5 0 -10
-5 -10 -11z"/>
<path d="M3300 260 c0 -5 5 -10 11 -10 5 0 7 5 4 10 -3 6 -8 10 -11 10 -2 0
-4 -4 -4 -10z"/>
</g>
</svg>
